<svg width="21" height="21" viewBox="0 0 21 21" fill="none" xmlns="http://www.w3.org/2000/svg">
<path d="M4.6875 21H0.328125V6.98438H4.6875V21ZM2.53125 5.0625C1.84375 5.0625 1.25 4.8125 0.75 4.3125C0.25 3.8125 0 3.21875 0 2.53125C0 1.84375 0.25 1.25 0.75 0.75C1.25 0.25 1.84375 0 2.53125 0C3.21875 0 3.8125 0.25 4.3125 0.75C4.8125 1.25 5.0625 1.84375 5.0625 2.53125C5.0625 3.21875 4.8125 3.8125 4.3125 4.3125C3.8125 4.8125 3.21875 5.0625 2.53125 5.0625ZM21 21H16.6406V14.1562C16.6406 13.0312 16.5469 12.2188 16.3594 11.7188C16.0156 10.875 15.3438 10.4531 14.3438 10.4531C13.3438 10.4531 12.6406 10.8281 12.2344 11.5781C11.9219 12.1406 11.7656 12.9688 11.7656 14.0625V21H7.45312V6.98438H11.625V8.90625H11.6719C11.9844 8.28125 12.4844 7.76563 13.1719 7.35938C13.9219 6.85937 14.7969 6.60938 15.7969 6.60938C17.8281 6.60938 19.25 7.25 20.0625 8.53125C20.6875 9.5625 21 11.1562 21 13.3125V21Z" fill="#B2B2B2"/>
</svg>
